<svg width="24" height="24" viewBox="0 0 24 24" fill="none" xmlns="http://www.w3.org/2000/svg">
<path d="M1.2 6C0.86 6 0.575 5.885 0.345 5.655C0.115 5.425 0 5.14 0 4.8V1.2C0 0.86 0.115 0.575 0.345 0.345C0.575 0.115 0.86 0 1.2 0H4.8C5.14 0 5.425 0.115 5.655 0.345C5.885 0.575 6 0.86 6 1.2C6 1.54 5.885 1.825 5.655 2.055C5.425 2.285 5.14 2.4 4.8 2.4H2.4V4.8C2.4 5.14 2.285 5.425 2.055 5.655C1.825 5.885 1.54 6 1.2 6ZM1.2 24C0.86 24 0.575 23.885 0.345 23.655C0.115 23.425 0 23.14 0 22.8V19.2C0 18.86 0.115 18.575 0.345 18.345C0.575 18.115 0.86 18 1.2 18C1.54 18 1.825 18.115 2.055 18.345C2.285 18.575 2.4 18.86 2.4 19.2V21.6H4.8C5.14 21.6 5.425 21.715 5.655 21.945C5.885 22.175 6 22.46 6 22.8C6 23.14 5.885 23.425 5.655 23.655C5.425 23.885 5.14 24 4.8 24H1.2ZM19.2 24C18.86 24 18.575 23.885 18.345 23.655C18.115 23.425 18 23.14 18 22.8C18 22.46 18.115 22.175 18.345 21.945C18.575 21.715 18.86 21.6 19.2 21.6H21.6V19.2C21.6 18.86 21.715 18.575 21.945 18.345C22.175 18.115 22.46 18 22.8 18C23.14 18 23.425 18.115 23.655 18.345C23.885 18.575 24 18.86 24 19.2V22.8C24 23.14 23.885 23.425 23.655 23.655C23.425 23.885 23.14 24 22.8 24H19.2ZM21.945 5.655C21.715 5.425 21.6 5.14 21.6 4.8V2.4H19.2C18.86 2.4 18.575 2.285 18.345 2.055C18.115 1.825 18 1.54 18 1.2C18 0.86 18.115 0.575 18.345 0.345C18.575 0.115 18.86 0 19.2 0H22.8C23.14 0 23.425 0.115 23.655 0.345C23.885 0.575 24 0.86 24 1.2V4.8C24 5.14 23.885 5.425 23.655 5.655C23.425 5.885 23.14 6 22.8 6C22.46 6 22.175 5.885 21.945 5.655ZM18.6 20.4V18.6H20.4V20.4H18.6ZM18.6 16.8V15H20.4V16.8H18.6ZM16.8 18.6V16.8H18.6V18.6H16.8ZM15 20.4V18.6H16.8V20.4H15ZM13.2 18.6V16.8H15V18.6H13.2ZM16.8 15V13.2H18.6V15H16.8ZM15 16.8V15H16.8V16.8H15ZM13.2 15V13.2H15V15H13.2ZM14.4 10.8C14.06 10.8 13.775 10.685 13.545 10.455C13.315 10.225 13.2 9.94 13.2 9.6V4.8C13.2 4.46 13.315 4.175 13.545 3.945C13.775 3.715 14.06 3.6 14.4 3.6H19.2C19.54 3.6 19.825 3.715 20.055 3.945C20.285 4.175 20.4 4.46 20.4 4.8V9.6C20.4 9.94 20.285 10.225 20.055 10.455C19.825 10.685 19.54 10.8 19.2 10.8H14.4ZM4.8 20.4C4.46 20.4 4.175 20.285 3.945 20.055C3.715 19.825 3.6 19.54 3.6 19.2V14.4C3.6 14.06 3.715 13.775 3.945 13.545C4.175 13.315 4.46 13.2 4.8 13.2H9.6C9.94 13.2 10.225 13.315 10.455 13.545C10.685 13.775 10.8 14.06 10.8 14.4V19.2C10.8 19.54 10.685 19.825 10.455 20.055C10.225 20.285 9.94 20.4 9.6 20.4H4.8ZM4.8 10.8C4.46 10.8 4.175 10.685 3.945 10.455C3.715 10.225 3.6 9.94 3.6 9.6V4.8C3.6 4.46 3.715 4.175 3.945 3.945C4.175 3.715 4.46 3.6 4.8 3.6H9.6C9.94 3.6 10.225 3.715 10.455 3.945C10.685 4.175 10.8 4.46 10.8 4.8V9.6C10.8 9.94 10.685 10.225 10.455 10.455C10.225 10.685 9.94 10.8 9.6 10.8H4.8ZM5.4 18.6H9V15H5.4V18.6ZM5.4 9H9V5.4H5.4V9ZM15 9H18.6V5.4H15V9Z" fill="white"/>
</svg>
