<svg width="24" height="26" viewBox="0 0 24 26" fill="none" xmlns="http://www.w3.org/2000/svg">
<path d="M1.87576 8.03199H19.3828V4.90573C19.3828 4.80944 19.3427 4.72128 19.2625 4.64125C19.1824 4.56101 19.0943 4.52089 18.998 4.52089H2.2606C2.16431 4.52089 2.07615 4.56101 1.99612 4.64125C1.91588 4.72128 1.87576 4.80944 1.87576 4.90573V8.03199ZM2.2606 23.9037C1.62889 23.9037 1.09419 23.6849 0.656515 23.2472C0.218838 22.8095 0 22.2748 0 21.6431V4.90573C0 4.27402 0.218838 3.73932 0.656515 3.30164C1.09419 2.86397 1.62889 2.64513 2.2606 2.64513H3.99192V0.961638C3.99192 0.687569 4.08373 0.458726 4.26735 0.275111C4.45096 0.0917033 4.67981 0 4.95387 0C5.22815 0 5.45699 0.0917033 5.6404 0.275111C5.82402 0.458726 5.91583 0.687569 5.91583 0.961638V2.64513H15.3909V0.937879C15.3909 0.671729 15.4806 0.448827 15.6601 0.269171C15.8397 0.0897233 16.0626 0 16.3288 0C16.5949 0 16.8177 0.0897233 16.9972 0.269171C17.1768 0.448827 17.2667 0.671729 17.2667 0.937879V2.64513H18.998C19.6297 2.64513 20.1644 2.86397 20.6021 3.30164C21.0397 3.73932 21.2586 4.27402 21.2586 4.90573V10.8C21.2586 11.0661 21.1688 11.2889 20.9891 11.4684C20.8096 11.648 20.5869 11.7379 20.3207 11.7379C20.0546 11.7379 19.8318 11.648 19.6523 11.4684C19.4727 11.2889 19.3828 11.0661 19.3828 10.8V9.90775H1.87576V21.6431C1.87576 21.7394 1.91588 21.8276 1.99612 21.9076C2.07615 21.9878 2.16431 22.028 2.2606 22.028H9.91025C10.1764 22.028 10.3993 22.1178 10.579 22.2974C10.7584 22.4769 10.8481 22.6997 10.8481 22.9658C10.8481 23.232 10.7584 23.4548 10.579 23.6342C10.3993 23.8139 10.1764 23.9037 9.91025 23.9037H2.2606ZM14.388 23.5117C13.293 22.4167 12.7455 21.0884 12.7455 19.5269C12.7455 17.9655 13.293 16.6372 14.388 15.5422C15.483 14.4472 16.8113 13.8997 18.3727 13.8997C19.9344 13.8997 21.2626 14.4472 22.3575 15.5422C23.4525 16.6372 24 17.9655 24 19.5269C24 21.0884 23.4525 22.4167 22.3575 23.5117C21.2626 24.6067 19.9344 25.1542 18.3727 25.1542C16.8113 25.1542 15.483 24.6067 14.388 23.5117ZM18.9261 19.3009V16.4007C18.9261 16.25 18.8715 16.1202 18.7623 16.0112C18.6533 15.9021 18.5234 15.8476 18.3727 15.8476C18.222 15.8476 18.0922 15.9021 17.9832 16.0112C17.8742 16.1202 17.8197 16.25 17.8197 16.4007V19.2815C17.8197 19.4322 17.847 19.5757 17.9016 19.712C17.956 19.8483 18.0418 19.975 18.1589 20.0922L20.0659 21.9992C20.1749 22.1082 20.3028 22.1647 20.4495 22.1686C20.596 22.1726 20.7278 22.1161 20.845 21.9992C20.9621 21.8821 21.0207 21.7522 21.0207 21.6097C21.0207 21.4669 20.9621 21.3369 20.845 21.2198L18.9261 19.3009Z" fill="white"/>
</svg>
