<svg width="24" height="24" viewBox="0 0 24 24" fill="none" xmlns="http://www.w3.org/2000/svg">
<path d="M12 24C10.34 24 8.78 23.685 7.32 23.055C5.86 22.425 4.59 21.57 3.51 20.49C2.43 19.41 1.575 18.14 0.945 16.68C0.315 15.22 0 13.66 0 12C0 10.34 0.315 8.78 0.945 7.32C1.575 5.86 2.43 4.59 3.51 3.51C4.59 2.43 5.86 1.575 7.32 0.945C8.78 0.315 10.34 0 12 0C13.66 0 15.22 0.315 16.68 0.945C18.14 1.575 19.41 2.43 20.49 3.51C21.57 4.59 22.425 5.86 23.055 7.32C23.685 8.78 24 10.34 24 12C24 13.66 23.685 15.22 23.055 16.68C22.425 18.14 21.57 19.41 20.49 20.49C19.41 21.57 18.14 22.425 16.68 23.055C15.22 23.685 13.66 24 12 24ZM10.8 21.51V20.31C10.1 20.21 9.425 20.02 8.775 19.74C8.125 19.46 7.52 19.12 6.96 18.72L6.12 19.59C6.78 20.11 7.505 20.535 8.295 20.865C9.085 21.195 9.92 21.41 10.8 21.51ZM13.2 21.51C14.08 21.41 14.915 21.195 15.705 20.865C16.495 20.535 17.22 20.11 17.88 19.59L17.04 18.72C16.48 19.12 15.875 19.46 15.225 19.74C14.575 20.02 13.9 20.21 13.2 20.31V21.51ZM12 18C13.66 18 15.075 17.415 16.245 16.245C17.415 15.075 18 13.66 18 12C18 10.34 17.415 8.925 16.245 7.755C15.075 6.585 13.66 6 12 6C10.34 6 8.925 6.585 7.755 7.755C6.585 8.925 6 10.34 6 12C6 13.66 6.585 15.075 7.755 16.245C8.925 17.415 10.34 18 12 18ZM19.59 17.88C20.11 17.22 20.535 16.495 20.865 15.705C21.195 14.915 21.41 14.08 21.51 13.2H20.31C20.21 13.9 20.02 14.575 19.74 15.225C19.46 15.875 19.12 16.48 18.72 17.04L19.59 17.88ZM4.41 17.88L5.28 17.01C4.88 16.45 4.54 15.85 4.26 15.21C3.98 14.57 3.79 13.9 3.69 13.2H2.49C2.59 14.08 2.805 14.915 3.135 15.705C3.465 16.495 3.89 17.22 4.41 17.88ZM11.52 16.17L8.94 12.72C8.78 12.5 8.7 12.26 8.7 12C8.7 11.74 8.78 11.5 8.94 11.28L11.52 7.83C11.64 7.67 11.8 7.59 12 7.59C12.2 7.59 12.36 7.67 12.48 7.83L15.06 11.28C15.22 11.5 15.3 11.74 15.3 12C15.3 12.26 15.22 12.5 15.06 12.72L12.48 16.17C12.36 16.33 12.2 16.41 12 16.41C11.8 16.41 11.64 16.33 11.52 16.17ZM2.49 10.8H3.69C3.79 10.1 3.98 9.43 4.26 8.79C4.54 8.15 4.88 7.55 5.28 6.99L4.41 6.12C3.89 6.78 3.465 7.505 3.135 8.295C2.805 9.085 2.59 9.92 2.49 10.8ZM20.31 10.8H21.51C21.41 9.92 21.19 9.085 20.85 8.295C20.51 7.505 20.08 6.78 19.56 6.12L18.72 6.96C19.12 7.52 19.46 8.125 19.74 8.775C20.02 9.425 20.21 10.1 20.31 10.8ZM6.99 5.28C7.55 4.88 8.15 4.54 8.79 4.26C9.43 3.98 10.1 3.79 10.8 3.69V2.49C9.92 2.59 9.085 2.805 8.295 3.135C7.505 3.465 6.78 3.89 6.12 4.41L6.99 5.28ZM17.04 5.28L17.88 4.44C17.22 3.92 16.495 3.49 15.705 3.15C14.915 2.81 14.08 2.59 13.2 2.49V3.69C13.9 3.79 14.575 3.98 15.225 4.26C15.875 4.54 16.48 4.88 17.04 5.28Z" fill="#33323D"/>
</svg>
