<svg width="25" height="25" viewBox="0 0 25 25" fill="none" xmlns="http://www.w3.org/2000/svg">
<path d="M3.125 12.5781C3.125 13.75 3.34635 14.8893 3.78906 15.9961C4.23177 17.1029 4.92188 18.125 5.85938 19.0625L6.25 19.4531V17.1875C6.25 16.7448 6.39974 16.3737 6.69922 16.0742C6.9987 15.7747 7.36979 15.625 7.8125 15.625C8.25521 15.625 8.6263 15.7747 8.92578 16.0742C9.22526 16.3737 9.375 16.7448 9.375 17.1875V23.4375C9.375 23.8802 9.22526 24.2513 8.92578 24.5508C8.6263 24.8503 8.25521 25 7.8125 25H1.5625C1.11979 25 0.748698 24.8503 0.449219 24.5508C0.14974 24.2513 0 23.8802 0 23.4375C0 22.9948 0.14974 22.6237 0.449219 22.3242C0.748698 22.0247 1.11979 21.875 1.5625 21.875H4.29688L3.67188 21.3281C2.31771 20.1302 1.36719 18.763 0.820312 17.2266C0.273438 15.6901 0 14.1406 0 12.5781C0 10.1302 0.625 7.91016 1.875 5.91797C3.125 3.92578 4.80469 2.39583 6.91406 1.32812C7.27865 1.11979 7.66276 1.10677 8.06641 1.28906C8.47005 1.47135 8.73698 1.77083 8.86719 2.1875C8.9974 2.57812 8.99089 2.96875 8.84766 3.35938C8.70443 3.75 8.45052 4.04948 8.08594 4.25781C6.57552 5.09115 5.37109 6.24349 4.47266 7.71484C3.57422 9.1862 3.125 10.8073 3.125 12.5781ZM21.875 12.4219C21.875 11.25 21.6536 10.1107 21.2109 9.00391C20.7682 7.89714 20.0781 6.875 19.1406 5.9375L18.75 5.54688V7.8125C18.75 8.25521 18.6003 8.6263 18.3008 8.92578C18.0013 9.22526 17.6302 9.375 17.1875 9.375C16.7448 9.375 16.3737 9.22526 16.0742 8.92578C15.7747 8.6263 15.625 8.25521 15.625 7.8125V1.5625C15.625 1.11979 15.7747 0.748698 16.0742 0.449219C16.3737 0.14974 16.7448 0 17.1875 0H23.4375C23.8802 0 24.2513 0.14974 24.5508 0.449219C24.8503 0.748698 25 1.11979 25 1.5625C25 2.00521 24.8503 2.3763 24.5508 2.67578C24.2513 2.97526 23.8802 3.125 23.4375 3.125H20.7031L21.3281 3.67188C22.6042 4.94792 23.5352 6.33464 24.1211 7.83203C24.707 9.32943 25 10.8594 25 12.4219C25 14.8698 24.375 17.0898 23.125 19.082C21.875 21.0742 20.1953 22.6042 18.0859 23.6719C17.7214 23.8802 17.3372 23.8932 16.9336 23.7109C16.5299 23.5286 16.263 23.2292 16.1328 22.8125C16.0026 22.4219 16.0091 22.0312 16.1523 21.6406C16.2956 21.25 16.5495 20.9505 16.9141 20.7422C18.4245 19.9089 19.6289 18.7565 20.5273 17.2852C21.4258 15.8138 21.875 14.1927 21.875 12.4219Z" fill="#3A51C9"/>
</svg>
