<svg width="24" height="24" viewBox="0 0 24 24" fill="none" xmlns="http://www.w3.org/2000/svg">
<path d="M6.80147 13.1188C7.10926 12.8121 7.26316 12.4397 7.26316 12.0016C7.26316 11.5633 7.10979 11.1903 6.80305 10.8827C6.49632 10.5749 6.12389 10.4211 5.68579 10.4211C5.24747 10.4211 4.87453 10.5744 4.56695 10.8812C4.25916 11.1879 4.10526 11.5603 4.10526 11.9984C4.10526 12.4367 4.25863 12.8097 4.56537 13.1173C4.87211 13.4251 5.24453 13.5789 5.68263 13.5789C6.12095 13.5789 6.49389 13.4256 6.80147 13.1188ZM13.1173 13.1188C13.4251 12.8121 13.5789 12.4397 13.5789 12.0016C13.5789 11.5633 13.4256 11.1903 13.1188 10.8827C12.8121 10.5749 12.4397 10.4211 12.0016 10.4211C11.5633 10.4211 11.1903 10.5744 10.8827 10.8812C10.5749 11.1879 10.4211 11.5603 10.4211 11.9984C10.4211 12.4367 10.5744 12.8097 10.8812 13.1173C11.1879 13.4251 11.5603 13.5789 11.9984 13.5789C12.4367 13.5789 12.8097 13.4256 13.1173 13.1188ZM19.4331 13.1188C19.7408 12.8121 19.8947 12.4397 19.8947 12.0016C19.8947 11.5633 19.7414 11.1903 19.4346 10.8827C19.1279 10.5749 18.7555 10.4211 18.3174 10.4211C17.8791 10.4211 17.5061 10.5744 17.1985 10.8812C16.8907 11.1879 16.7368 11.5603 16.7368 11.9984C16.7368 12.4367 16.8902 12.8097 17.1969 13.1173C17.5037 13.4251 17.8761 13.5789 18.3142 13.5789C18.7525 13.5789 19.1255 13.4256 19.4331 13.1188ZM12.0022 24C10.3424 24 8.78232 23.6851 7.32189 23.0552C5.86147 22.4253 4.59116 21.5704 3.51095 20.4906C2.43074 19.4108 1.57547 18.1411 0.945158 16.6813C0.315052 15.2215 0 13.6618 0 12.0022C0 10.3424 0.314947 8.78232 0.944842 7.32189C1.57474 5.86147 2.42958 4.59116 3.50937 3.51095C4.58916 2.43074 5.85895 1.57547 7.31874 0.945158C8.77853 0.315052 10.3382 0 11.9978 0C13.6576 0 15.2177 0.314947 16.6781 0.944842C18.1385 1.57474 19.4088 2.42958 20.4891 3.50937C21.5693 4.58916 22.4245 5.85895 23.0548 7.31874C23.6849 8.77853 24 10.3382 24 11.9978C24 13.6576 23.6851 15.2177 23.0552 16.6781C22.4253 18.1385 21.5704 19.4088 20.4906 20.4891C19.4108 21.5693 18.1411 22.4245 16.6813 23.0548C15.2215 23.6849 13.6618 24 12.0022 24ZM12 22.1053C14.8211 22.1053 17.2105 21.1263 19.1684 19.1684C21.1263 17.2105 22.1053 14.8211 22.1053 12C22.1053 9.17895 21.1263 6.78947 19.1684 4.83158C17.2105 2.87368 14.8211 1.89474 12 1.89474C9.17895 1.89474 6.78947 2.87368 4.83158 4.83158C2.87368 6.78947 1.89474 9.17895 1.89474 12C1.89474 14.8211 2.87368 17.2105 4.83158 19.1684C6.78947 21.1263 9.17895 22.1053 12 22.1053Z" fill="#040037"/>
</svg>
