<svg width="48" height="48" viewBox="0 0 48 48" fill="none" xmlns="http://www.w3.org/2000/svg">
<path d="M27 25.2L24.24 21.6C24 21.28 23.68 21.12 23.28 21.12C22.88 21.12 22.56 21.28 22.32 21.6L18.3 26.88C17.98 27.28 17.93 27.7 18.15 28.14C18.37 28.58 18.74 28.8 19.26 28.8H38.34C38.86 28.8 39.23 28.58 39.45 28.14C39.67 27.7 39.62 27.28 39.3 26.88L33.48 19.26C33.24 18.94 32.92 18.78 32.52 18.78C32.12 18.78 31.8 18.94 31.56 19.26L27 25.2ZM14.4 38.4C13.08 38.4 11.95 37.93 11.01 36.99C10.07 36.05 9.6 34.92 9.6 33.6V4.8C9.6 3.48 10.07 2.35 11.01 1.41C11.95 0.47 13.08 0 14.4 0H43.2C44.52 0 45.65 0.47 46.59 1.41C47.53 2.35 48 3.48 48 4.8V33.6C48 34.92 47.53 36.05 46.59 36.99C45.65 37.93 44.52 38.4 43.2 38.4H14.4ZM14.4 33.6H43.2V4.8H14.4V33.6ZM4.8 48C3.48 48 2.35 47.53 1.41 46.59C0.47 45.65 0 44.52 0 43.2V12C0 11.32 0.23 10.75 0.69 10.29C1.15 9.83 1.72 9.6 2.4 9.6C3.08 9.6 3.65 9.83 4.11 10.29C4.57 10.75 4.8 11.32 4.8 12V43.2H36C36.68 43.2 37.25 43.43 37.71 43.89C38.17 44.35 38.4 44.92 38.4 45.6C38.4 46.28 38.17 46.85 37.71 47.31C37.25 47.77 36.68 48 36 48H4.8Z" fill="#757388"/>
</svg>
