<svg width="24" height="24" viewBox="0 0 24 24" fill="none" xmlns="http://www.w3.org/2000/svg">
<path d="M2.72727 24C1.97727 24 1.33523 23.7389 0.801136 23.2167C0.267045 22.6944 0 22.0667 0 21.3333V2.66667C0 1.93333 0.267045 1.30556 0.801136 0.783333C1.33523 0.261111 1.97727 0 2.72727 0H10.9091C11.2955 0 11.6193 0.127778 11.8807 0.383333C12.142 0.638889 12.2727 0.955556 12.2727 1.33333C12.2727 1.71111 12.142 2.02778 11.8807 2.28333C11.6193 2.53889 11.2955 2.66667 10.9091 2.66667H2.72727V21.3333H10.9091C11.2955 21.3333 11.6193 21.4611 11.8807 21.7167C12.142 21.9722 12.2727 22.2889 12.2727 22.6667C12.2727 23.0444 12.142 23.3611 11.8807 23.6167C11.6193 23.8722 11.2955 24 10.9091 24H2.72727ZM19.3295 13.3333H9.54545C9.15909 13.3333 8.83523 13.2056 8.57386 12.95C8.3125 12.6944 8.18182 12.3778 8.18182 12C8.18182 11.6222 8.3125 11.3056 8.57386 11.05C8.83523 10.7944 9.15909 10.6667 9.54545 10.6667H19.3295L16.7727 8.16667C16.5227 7.92222 16.3977 7.62222 16.3977 7.26667C16.3977 6.91111 16.5227 6.6 16.7727 6.33333C17.0227 6.06667 17.3409 5.92778 17.7273 5.91667C18.1136 5.90556 18.4432 6.03333 18.7159 6.3L23.5909 11.0667C23.8636 11.3333 24 11.6444 24 12C24 12.3556 23.8636 12.6667 23.5909 12.9333L18.7159 17.7C18.4432 17.9667 18.1193 18.0944 17.7443 18.0833C17.3693 18.0722 17.0455 17.9333 16.7727 17.6667C16.5227 17.4 16.4034 17.0833 16.4148 16.7167C16.4261 16.35 16.5568 16.0444 16.8068 15.8L19.3295 13.3333Z" fill="#E91C2E"/>
</svg>
