<svg width="24" height="27" viewBox="0 0 24 27" fill="currentColor" xmlns="http://www.w3.org/2000/svg">
<path d="M2.4 23.9076H7.754V15.846C7.754 15.4364 7.89253 15.0929 8.1696 14.8156C8.44693 14.5385 8.7904 14.4 9.2 14.4H14.8C15.2096 14.4 15.5531 14.5385 15.8304 14.8156C16.1075 15.0929 16.246 15.4364 16.246 15.846V23.9076H21.6V9.7536C21.6 9.67173 21.582 9.59747 21.546 9.5308C21.5103 9.46414 21.4616 9.40507 21.4 9.3536L12.2924 2.5076C12.2103 2.43587 12.1128 2.4 12 2.4C11.8872 2.4 11.7897 2.43587 11.7076 2.5076L2.6 9.3536C2.5384 9.40507 2.48973 9.46414 2.454 9.5308C2.418 9.59747 2.4 9.67173 2.4 9.7536V23.9076ZM0 23.9076V9.7536C0 9.29574 0.1024 8.862 0.3072 8.4524C0.512266 8.04253 0.795467 7.70507 1.1568 7.44L10.2648 0.578401C10.7701 0.192801 11.3477 0 11.9976 0C12.6475 0 13.2267 0.192801 13.7352 0.578401L22.8432 7.44C23.2045 7.70507 23.4877 8.04253 23.6928 8.4524C23.8976 8.862 24 9.29574 24 9.7536V23.9076C24 24.562 23.7636 25.1256 23.2908 25.5984C22.818 26.0712 22.2544 26.3076 21.6 26.3076H15.2924C14.8825 26.3076 14.5391 26.1689 14.262 25.8916C13.9847 25.6145 13.846 25.2711 13.846 24.8612V16.8H10.154V24.8612C10.154 25.2711 10.0153 25.6145 9.738 25.8916C9.46093 26.1689 9.11747 26.3076 8.7076 26.3076H2.4C1.7456 26.3076 1.182 26.0712 0.7092 25.5984C0.2364 25.1256 0 24.562 0 23.9076Z" fill="currentColor"/>
</svg>
