<svg xmlns="http://www.w3.org/2000/svg" width="24" height="24" fill="none" viewBox="0 0 24 24">
  <path fill="#188638" d="M12 24c-1.66 0-3.22-.315-4.68-.945a12.118 12.118 0 0 1-3.81-2.565 12.118 12.118 0 0 1-2.565-3.81C.315 15.22 0 13.66 0 12c0-1.66.315-3.22.945-4.68.63-1.46 1.485-2.73 2.565-3.81A12.118 12.118 0 0 1 7.32.945C8.78.315 10.34 0 12 0c1.66 0 3.22.315 4.68.945 1.46.63 2.73 1.485 3.81 2.565a12.118 12.118 0 0 1 2.565 3.81c.63 1.46.945 3.02.945 4.68 0 1.66-.315 3.22-.945 4.68a12.118 12.118 0 0 1-2.565 3.81 12.118 12.118 0 0 1-3.81 2.565c-1.46.63-3.02.945-4.68.945Zm-1.2-2.49v-1.2c-.7-.1-1.375-.29-2.025-.57a9.744 9.744 0 0 1-1.815-1.02l-.84.87c.66.52 1.385.945 2.175 1.275.79.33 1.625.545 2.505.645Zm2.4 0c.88-.1 1.715-.315 2.505-.645a9.269 9.269 0 0 0 2.175-1.275l-.84-.87c-.56.4-1.165.74-1.815 1.02-.65.28-1.325.47-2.025.57v1.2ZM12 18c1.66 0 3.075-.585 4.245-1.755S18 13.66 18 12c0-1.66-.585-3.075-1.755-4.245S13.66 6 12 6c-1.66 0-3.075.585-4.245 1.755S6 10.34 6 12c0 1.66.585 3.075 1.755 4.245S10.34 18 12 18Zm7.59-.12c.52-.66.945-1.385 1.275-2.175.33-.79.545-1.625.645-2.505h-1.2c-.1.7-.29 1.375-.57 2.025-.28.65-.62 1.255-1.02 1.815l.87.84Zm-15.18 0 .87-.87c-.4-.56-.74-1.16-1.02-1.8-.28-.64-.47-1.31-.57-2.01h-1.2c.1.88.315 1.715.645 2.505.33.79.755 1.515 1.275 2.175Zm7.11-1.71-2.58-3.45a1.198 1.198 0 0 1 0-1.44l2.58-3.45a.57.57 0 0 1 .48-.24c.2 0 .36.08.48.24l2.58 3.45a1.198 1.198 0 0 1 0 1.44l-2.58 3.45a.57.57 0 0 1-.48.24.57.57 0 0 1-.48-.24ZM2.49 10.8h1.2c.1-.7.29-1.37.57-2.01.28-.64.62-1.24 1.02-1.8l-.87-.87a9.269 9.269 0 0 0-1.275 2.175A9.142 9.142 0 0 0 2.49 10.8Zm17.82 0h1.2c-.1-.88-.32-1.715-.66-2.505a9.68 9.68 0 0 0-1.29-2.175l-.84.84c.4.56.74 1.165 1.02 1.815.28.65.47 1.325.57 2.025ZM6.99 5.28c.56-.4 1.16-.74 1.8-1.02.64-.28 1.31-.47 2.01-.57v-1.2c-.88.1-1.715.315-2.505.645-.79.33-1.515.755-2.175 1.275l.87.87Zm10.05 0 .84-.84a9.68 9.68 0 0 0-2.175-1.29 8.819 8.819 0 0 0-2.505-.66v1.2c.7.1 1.375.29 2.025.57.65.28 1.255.62 1.815 1.02Z"/>
</svg>
