<svg xmlns="http://www.w3.org/2000/svg" width="32" height="32" fill="none" viewBox="0 0 32 32">
  <path fill="#040037" d="M25.456 6.364a3.064 3.064 0 0 1-2.247-.935 3.064 3.064 0 0 1-.935-2.247c0-.875.312-1.624.935-2.247A3.064 3.064 0 0 1 25.456 0c.875 0 1.625.312 2.248.935.623.623.934 1.372.934 2.247 0 .875-.311 1.624-.934 2.247a3.064 3.064 0 0 1-2.248.935Zm-1.59 23.866V19.092c0-1.06-.272-2.015-.816-2.863a5.875 5.875 0 0 0-2.088-1.99l1.392-4.096a3.008 3.008 0 0 1 1.173-1.591 3.291 3.291 0 0 1 1.93-.597c.715 0 1.358.199 1.928.597.57.398.962.928 1.174 1.59L31.9 20.167c.186.53.113 1.014-.219 1.452-.331.438-.762.656-1.292.656h-1.75v7.956c0 .45-.153.828-.458 1.133a1.54 1.54 0 0 1-1.134.457h-1.59a1.54 1.54 0 0 1-1.134-.457 1.54 1.54 0 0 1-.458-1.133Zm-8.85-15.811a2.302 2.302 0 0 1-.697-1.69c0-.664.232-1.227.696-1.691a2.302 2.302 0 0 1 1.69-.696c.664 0 1.227.232 1.691.696.464.464.696 1.027.696 1.69s-.232 1.227-.696 1.69a2.301 2.301 0 0 1-1.69.697 2.302 2.302 0 0 1-1.69-.696ZM5.568 6.364A3.064 3.064 0 0 1 3.32 5.43a3.064 3.064 0 0 1-.934-2.247c0-.875.311-1.624.934-2.247A3.064 3.064 0 0 1 5.57 0c.875 0 1.624.312 2.247.935.623.623.935 1.372.935 2.247 0 .875-.312 1.624-.935 2.247a3.064 3.064 0 0 1-2.247.935ZM2.387 30.23v-9.547H1.59a1.54 1.54 0 0 1-1.134-.457A1.54 1.54 0 0 1 0 19.092v-7.955c0-.875.312-1.624.935-2.247a3.064 3.064 0 0 1 2.247-.935h4.773c.875 0 1.624.312 2.247.935a3.06 3.06 0 0 1 .935 2.247v7.955c0 .451-.152.829-.457 1.134a1.54 1.54 0 0 1-1.134.457h-.795v9.547c0 .45-.153.828-.458 1.133a1.54 1.54 0 0 1-1.133.457H3.978a1.54 1.54 0 0 1-1.134-.457 1.54 1.54 0 0 1-.457-1.133Zm11.932 0v-4.774A1.54 1.54 0 0 1 13.186 25a1.54 1.54 0 0 1-.458-1.134v-4.773a2.3 2.3 0 0 1 .696-1.69 2.301 2.301 0 0 1 1.69-.696h3.183a2.3 2.3 0 0 1 1.69.696 2.3 2.3 0 0 1 .696 1.69v4.773c0 .451-.152.829-.457 1.134a1.54 1.54 0 0 1-1.134.457v4.774c0 .45-.152.828-.457 1.133a1.54 1.54 0 0 1-1.134.457h-1.59a1.54 1.54 0 0 1-1.134-.457 1.54 1.54 0 0 1-.458-1.133Z"/>
</svg>
