<svg xmlns="http://www.w3.org/2000/svg" width="24" height="24" fill="none" viewBox="0 0 24 24">
  <path fill="#040037" d="m21.682 23.625-6.75-6.75c-.25-.25-.375-.568-.375-.954 0-.387.125-.705.375-.955s.568-.375.954-.375c.387 0 .705.125.955.375l6.75 6.75c.25.25.375.568.375.954 0 .387-.125.705-.375.955s-.568.375-.955.375c-.386 0-.704-.125-.954-.375ZM2.08 21.171a13.572 13.572 0 0 1-1.57-3.563A14.26 14.26 0 0 1 0 13.807c0-1.773.33-3.5.989-5.182.659-1.682 1.67-3.205 3.034-4.568 1.363-1.364 2.892-2.38 4.585-3.051A14.006 14.006 0 0 1 13.807 0c1.295 0 2.562.176 3.801.528a13.45 13.45 0 0 1 3.528 1.586c.705.454 1.08 1.102 1.125 1.943.046.84-.25 1.58-.886 2.216L6.239 21.409c-.637.637-1.381.932-2.233.887-.853-.046-1.495-.421-1.926-1.125Zm2.215-1.705 1.841-1.841c-.363-.477-.71-.966-1.04-1.466-.329-.5-.63-1-.903-1.5s-.511-1-.716-1.5c-.204-.5-.386-.989-.545-1.466a11.668 11.668 0 0 0-.051 4.023 9.97 9.97 0 0 0 1.414 3.75Zm3.819-3.75 7.568-7.636a16.22 16.22 0 0 0-2.949-1.824c-.989-.466-1.915-.784-2.778-.955-.864-.17-1.643-.199-2.336-.085-.693.114-1.233.364-1.619.75-.386.409-.636.96-.75 1.653-.114.694-.085 1.478.085 2.353.17.875.489 1.8.955 2.778a17.582 17.582 0 0 0 1.824 2.966ZM19.5 4.33a10.837 10.837 0 0 0-7.84-1.364c.5.159 1 .34 1.5.545.5.205 1 .438 1.5.7.5.26.993.556 1.482.886.489.33.972.687 1.449 1.073L19.5 4.33Z"/>
</svg>
