<svg xmlns="http://www.w3.org/2000/svg" width="32" height="33" fill="none" viewBox="0 0 32 33">
  <path fill="#040037" d="M31.079 19.625 19.625 31.079c-.32.32-.681.56-1.082.72-.4.161-.8.241-1.201.241-.4 0-.801-.08-1.202-.24a3.2 3.2 0 0 1-1.081-.721L.92 16.94A3.164 3.164 0 0 1 0 14.698V3.204C0 2.323.314 1.569.941.941A3.085 3.085 0 0 1 3.204 0h11.494c.428 0 .841.087 1.242.26.4.174.748.408 1.041.701L31.08 15.1c.32.32.554.68.7 1.081.148.4.221.801.221 1.202 0 .4-.073.794-.22 1.181a3 3 0 0 1-.701 1.062Zm-13.737 9.211 11.454-11.454L14.658 3.204H3.204v11.454l14.138 14.178ZM7.209 9.612a2.32 2.32 0 0 0 1.702-.7 2.32 2.32 0 0 0 .701-1.703c0-.667-.234-1.235-.7-1.702a2.317 2.317 0 0 0-1.703-.701c-.667 0-1.235.234-1.702.7a2.317 2.317 0 0 0-.701 1.703c0 .668.234 1.235.7 1.702a2.322 2.322 0 0 0 1.703.701Z"/>
</svg>
