<svg xmlns="http://www.w3.org/2000/svg" width="24" height="24" fill="none" viewBox="0 0 24 24">
  <path fill="#E91C2E" d="M2.727 24c-.75 0-1.392-.261-1.926-.783C.267 22.694 0 22.067 0 21.333V2.667C0 1.933.267 1.306.801.783A2.656 2.656 0 0 1 2.727 0h8.182c.386 0 .71.128.972.383.261.256.392.573.392.95 0 .378-.131.695-.392.95a1.335 1.335 0 0 1-.972.384H2.727v18.666h8.182c.386 0 .71.128.972.384.261.255.392.572.392.95 0 .377-.131.694-.392.95a1.335 1.335 0 0 1-.972.383H2.727ZM19.33 13.333H9.545c-.386 0-.71-.127-.971-.383a1.275 1.275 0 0 1-.392-.95c0-.378.13-.694.392-.95.261-.256.585-.383.971-.383h9.784l-2.556-2.5a1.21 1.21 0 0 1-.375-.9c0-.356.125-.667.375-.934.25-.266.568-.405.954-.416.387-.011.716.116.989.383l4.875 4.767a1.265 1.265 0 0 1 0 1.866L18.716 17.7a1.284 1.284 0 0 1-.972.383 1.406 1.406 0 0 1-.971-.416 1.28 1.28 0 0 1-.358-.95c.011-.367.142-.673.392-.917l2.523-2.467Z"/>
</svg>
