<svg width="18" height="32" viewBox="0 0 18 32" fill="none" xmlns="http://www.w3.org/2000/svg">
<path d="M13.7979 15.9856L0.500311 29.284C0.206966 29.5768 0.0503788 29.9362 0.0305443 30.3621C0.0101871 30.7875 0.166777 31.1667 0.500311 31.4997C0.833324 31.8332 1.20262 32 1.60818 32C2.01375 32 2.38304 31.8332 2.71605 31.4997L16.4599 17.7566C16.7329 17.4831 16.9247 17.2039 17.0354 16.9189C17.1455 16.6339 17.2006 16.3228 17.2006 15.9856C17.2006 15.6484 17.1455 15.3373 17.0354 15.0523C16.9247 14.7673 16.7329 14.4881 16.4599 14.2146L2.71605 0.471524C2.42323 0.17818 2.06386 0.0215911 1.63793 0.00175643C1.21253 -0.0186002 0.833324 0.137989 0.500311 0.471524C0.166777 0.804538 1.14441e-05 1.17383 1.14441e-05 1.5794C1.14441e-05 1.98496 0.166777 2.35425 0.500311 2.68727L13.7979 15.9856Z" fill="#040037"/>
</svg>
