<svg width="20" height="20" viewBox="0 0 20 20" fill="none" xmlns="http://www.w3.org/2000/svg">
<path d="M2.22222 17.7778H3.80556L14.6667 6.91667L13.0833 5.33333L2.22222 16.1944V17.7778ZM1.11111 20C0.796296 20 0.532407 19.8935 0.319444 19.6806C0.106481 19.4676 0 19.2037 0 18.8889V16.1944C0 15.8981 0.0555556 15.6157 0.166667 15.3472C0.277778 15.0787 0.435185 14.8426 0.638889 14.6389L14.6667 0.638889C14.8889 0.435185 15.1343 0.277778 15.4028 0.166667C15.6713 0.0555556 15.9537 0 16.25 0C16.5463 0 16.8333 0.0555556 17.1111 0.166667C17.3889 0.277778 17.6296 0.444444 17.8333 0.666667L19.3611 2.22222C19.5833 2.42593 19.7454 2.66667 19.8472 2.94444C19.9491 3.22222 20 3.5 20 3.77778C20 4.07407 19.9491 4.35648 19.8472 4.625C19.7454 4.89352 19.5833 5.13889 19.3611 5.36111L5.36111 19.3611C5.15741 19.5648 4.9213 19.7222 4.65278 19.8333C4.38426 19.9444 4.10185 20 3.80556 20H1.11111ZM13.8611 6.13889L13.0833 5.33333L14.6667 6.91667L13.8611 6.13889Z" fill="#757388"/>
</svg>
