<svg preserveAspectRatio="none" width="100%" height="100%" overflow="visible" style="display: block;" viewBox="0 0 24 18.9" fill="none" xmlns="http://www.w3.org/2000/svg">
<path id="heartplus-icon-brand-m" d="M0 5.97273C0 4.26364 0.572727 2.84091 1.71818 1.70455C2.86364 0.568182 4.29091 0 6 0C6.94545 0 7.84545 0.2 8.7 0.6C9.55455 1 10.2909 1.56364 10.9091 2.29091C11.5273 1.56364 12.2636 1 13.1182 0.6C13.9727 0.2 14.8727 0 15.8182 0C17.1091 0 18.2182 0.322727 19.1455 0.968182C20.0727 1.61364 20.7727 2.44545 21.2455 3.46364C21.3727 3.73636 21.3818 4.01364 21.2727 4.29545C21.1636 4.57727 20.9727 4.78182 20.7 4.90909C20.4273 5.03636 20.15 5.04545 19.8682 4.93636C19.5864 4.82727 19.3818 4.63636 19.2545 4.36364C18.9273 3.63636 18.4455 3.09091 17.8091 2.72727C17.1727 2.36364 16.5091 2.18182 15.8182 2.18182C14.9818 2.18182 14.2182 2.41818 13.5273 2.89091C12.8364 3.36364 12.2364 3.94545 11.7273 4.63636C11.6364 4.78182 11.5182 4.88636 11.3727 4.95C11.2273 5.01364 11.0727 5.04545 10.9091 5.04545C10.7455 5.04545 10.5909 5.00909 10.4455 4.93636C10.3 4.86364 10.1818 4.76364 10.0909 4.63636C9.58182 3.94545 8.98182 3.36364 8.29091 2.89091C7.6 2.41818 6.83636 2.18182 6 2.18182C4.96364 2.18182 4.06818 2.54091 3.31364 3.25909C2.55909 3.97727 2.18182 4.88182 2.18182 5.97273C2.18182 6.57273 2.30909 7.18182 2.56364 7.8C2.81818 8.41818 3.27273 9.13182 3.92727 9.94091C4.58182 10.75 5.47273 11.6955 6.6 12.7773C7.72727 13.8591 9.16364 15.1636 10.9091 16.6909L13.3364 14.5636C13.5545 14.3636 13.8091 14.2727 14.1 14.2909C14.3909 14.3091 14.6364 14.4182 14.8364 14.6182C15.0545 14.8364 15.1591 15.1045 15.15 15.4227C15.1409 15.7409 15.0182 16 14.7818 16.2L12.3545 18.3545C12.1545 18.5364 11.9273 18.6727 11.6727 18.7636C11.4182 18.8545 11.1636 18.9 10.9091 18.9C10.6545 18.9 10.4 18.8545 10.1455 18.7636C9.89091 18.6727 9.66364 18.5273 9.46364 18.3273C8.64545 17.6 7.69545 16.7727 6.61364 15.8455C5.53182 14.9182 4.5 13.9227 3.51818 12.8591C2.53636 11.7955 1.70455 10.6818 1.02273 9.51818C0.340909 8.35455 0 7.17273 0 5.97273ZM18.5455 12H16.3636C16.0545 12 15.7955 11.8955 15.5864 11.6864C15.3773 11.4773 15.2727 11.2182 15.2727 10.9091C15.2727 10.6 15.3773 10.3409 15.5864 10.1318C15.7955 9.92273 16.0545 9.81818 16.3636 9.81818H18.5455V7.63636C18.5455 7.32727 18.65 7.06818 18.8591 6.85909C19.0682 6.65 19.3273 6.54546 19.6364 6.54546C19.9455 6.54546 20.2045 6.65 20.4136 6.85909C20.6227 7.06818 20.7273 7.32727 20.7273 7.63636V9.81818H22.9091C23.2182 9.81818 23.4773 9.92273 23.6864 10.1318C23.8955 10.3409 24 10.6 24 10.9091C24 11.2182 23.8955 11.4773 23.6864 11.6864C23.4773 11.8955 23.2182 12 22.9091 12H20.7273V14.1818C20.7273 14.4909 20.6227 14.75 20.4136 14.9591C20.2045 15.1682 19.9455 15.2727 19.6364 15.2727C19.3273 15.2727 19.0682 15.1682 18.8591 14.9591C18.65 14.75 18.5455 14.4909 18.5455 14.1818V12Z" fill="currentColor"/>
</svg>
