<svg width="20" height="40" viewBox="0 0 20 40" fill="none" xmlns="http://www.w3.org/2000/svg">
<path d="M2 10C1.43333 10 0.958333 9.80833 0.575 9.425C0.191667 9.04167 0 8.56667 0 8C0 7.43333 0.191667 6.95833 0.575 6.575C0.958333 6.19167 1.43333 6 2 6H8V2C8 1.43333 8.19167 0.958333 8.575 0.575C8.95833 0.191667 9.43333 0 10 0C10.5667 0 11.0417 0.191667 11.425 0.575C11.8083 0.958333 12 1.43333 12 2V6H18C18.5667 6 19.0417 6.19167 19.425 6.575C19.8083 6.95833 20 7.43333 20 8C20 8.56667 19.8083 9.04167 19.425 9.425C19.0417 9.80833 18.5667 10 18 10H2ZM4 40C2.9 40 1.95833 39.6083 1.175 38.825C0.391667 38.0417 0 37.1 0 36V18C0 16.3333 0.583333 14.9167 1.75 13.75C2.91667 12.5833 4.33333 12 6 12H14C15.6667 12 17.0833 12.5833 18.25 13.75C19.4167 14.9167 20 16.3333 20 18V36C20 37.1 19.6083 38.0417 18.825 38.825C18.0417 39.6083 17.1 40 16 40H4ZM4 36H16V18C16 17.4333 15.8083 16.9583 15.425 16.575C15.0417 16.1917 14.5667 16 14 16H6C5.43333 16 4.95833 16.1917 4.575 16.575C4.19167 16.9583 4 17.4333 4 18V20H8C8.56667 20 9.04167 20.1917 9.425 20.575C9.80833 20.9583 10 21.4333 10 22C10 22.5667 9.80833 23.0417 9.425 23.425C9.04167 23.8083 8.56667 24 8 24H4V28H8C8.56667 28 9.04167 28.1917 9.425 28.575C9.80833 28.9583 10 29.4333 10 30C10 30.5667 9.80833 31.0417 9.425 31.425C9.04167 31.8083 8.56667 32 8 32H4V36Z" fill="#040037"/>
</svg>
