<svg width="20" height="20" viewBox="0 0 20 20" fill="none" xmlns="http://www.w3.org/2000/svg">
<path d="M8.84615 11.1538H1.15385C0.826923 11.1538 0.552949 11.0432 0.331923 10.8219C0.110641 10.6006 0 10.3265 0 9.99962C0 9.67244 0.110641 9.39846 0.331923 9.17769C0.552949 8.95667 0.826923 8.84615 1.15385 8.84615H8.84615V1.15385C8.84615 0.826923 8.9568 0.552949 9.17808 0.331923C9.39936 0.110641 9.67346 0 10.0004 0C10.3276 0 10.6015 0.110641 10.8223 0.331923C11.0433 0.552949 11.1538 0.826923 11.1538 1.15385V8.84615H18.8462C19.1731 8.84615 19.4471 8.9568 19.6681 9.17808C19.8894 9.39936 20 9.67346 20 10.0004C20 10.3276 19.8894 10.6015 19.6681 10.8223C19.4471 11.0433 19.1731 11.1538 18.8462 11.1538H11.1538V18.8462C11.1538 19.1731 11.0432 19.4471 10.8219 19.6681C10.6006 19.8894 10.3265 20 9.99962 20C9.67244 20 9.39846 19.8894 9.17769 19.6681C8.95667 19.4471 8.84615 19.1731 8.84615 18.8462V11.1538Z" fill="#757388"/>
</svg>
